<?xml version="1.0" standalone="no"?>
<!DOCTYPE svg PUBLIC "-//W3C//DTD SVG 1.1//EN"
  "http://www.w3.org/Graphics/SVG/1.1/DTD/svg11.dtd">
<!-- Created with matplotlib (http://matplotlib.sourceforge.net/) -->
<svg width="288pt" height="230pt" viewBox="0 0 288 230"
   xmlns="http://www.w3.org/2000/svg"
   xmlns:xlink="http://www.w3.org/1999/xlink"
   version="1.1"
   id="svg1">
<filter id="colorAdd"><feComposite in="SourceGraphic" in2="BackgroundImage" operator="arithmetic" k2="1" k3="1"/></filter>
<g id="figure1">
<g id="patch1">
<path style="fill: #ffffff; stroke: #ffffff; stroke-width: 1.000000; stroke-linejoin: round; stroke-linecap: square;  opacity: 1.000000"  d="M0.000000 230.400000L288.000000 230.400000L288.000000 0.000000
L0.000000 0.000000z"/>
</g>
<g id="axes1">
<g id="patch2">
<path style="fill: #ffffff; opacity: 1.000000"  d="M48.960000 200.448000L276.480000 200.448000L276.480000 16.128000
L48.960000 16.128000z"/>
</g>
<g id="line2d1">
<defs>
  <clipPath id="p7d45bcb963c11562de4cbcc4e1a60e5c">
<rect x="48.960000" y="16.128000" width="227.520000" height="184.320000"/>
  </clipPath>
</defs><path style="fill: none; stroke: #ffa500; stroke-width: 1.500000; stroke-linejoin: round; stroke-linecap: square;  opacity: 1.000000" clip-path="url(#p7d45bcb963c11562de4cbcc4e1a60e5c)" d="M48.960000 188.925300L59.994720 187.718455L69.550560 186.454252
L77.968800 185.118911L85.363200 183.723782L91.961280 182.254022
L97.763040 180.739934L102.996000 179.151706L107.773920 177.473426
L112.096800 175.724876L116.078400 173.879245L119.718720 171.954130
L123.131520 169.902867L126.316800 167.733158L129.274560 165.458876
L132.118560 162.996940L134.848800 160.339581L137.465280 157.482576
L139.968000 154.426671L142.470720 151.015811L144.973440 147.211803
L147.476160 142.980486L149.978880 138.297469L152.595360 132.911472
L155.439360 126.517215L158.738400 118.511146L164.198880 104.538421
L168.749280 93.148230L171.934560 85.769573L174.664800 79.982411
L177.281280 74.944566L179.784000 70.591896L182.286720 66.674447
L184.789440 63.160067L187.405920 59.876136L190.022400 56.947576
L192.752640 54.224878L195.596640 51.703950L198.554400 49.376873
L201.739680 47.158626L205.038720 45.129011L208.679040 43.156464
L212.546880 41.318124L216.756000 39.568333L221.306400 37.919695
L226.311840 36.345424L231.886080 34.832159L238.029120 33.400463
L244.854720 32.041441L252.590400 30.734399L261.236160 29.503054
L271.133280 28.323419L276.366240 27.779335L276.366240 27.779335"/>
</g>
<g id="line2d2">
<path style="fill: none; stroke: #ffa500; stroke-width: 1.500000; stroke-linejoin: round; stroke-linecap: square;  opacity: 1.000000" clip-path="url(#p7d45bcb963c11562de4cbcc4e1a60e5c)" d="M48.960000 200.448000L276.366240 200.448000L276.366240 200.448000"/>
</g>
<g id="line2d3">
<path style="fill: none; stroke: #800080; stroke-width: 1.500000; stroke-linejoin: round; stroke-linecap: square;  opacity: 1.000000" clip-path="url(#p7d45bcb963c11562de4cbcc4e1a60e5c)" d="M48.960000 196.969094L60.677280 196.182093L70.460640 195.307725
L78.651360 194.359275L85.704480 193.324958L91.847520 192.204665
L97.308000 190.984685L102.085920 189.695869L106.408800 188.306385
L110.390400 186.794759L114.030720 185.175726L117.443520 183.410374
L120.628800 181.505511L123.586560 179.475001L126.430560 177.245797
L129.160800 174.811386L131.777280 172.169367L134.280000 169.322543
L136.782720 166.126545L139.171680 162.716671L141.560640 158.925408
L143.949600 154.726614L146.452320 149.870123L149.068800 144.282722
L151.799040 137.908588L154.756800 130.428553L158.283360 120.876544
L164.085120 104.381589L169.204320 90.081536L172.617120 81.193256
L175.574880 74.096488L178.305120 68.113386L180.921600 62.911645
L183.424320 58.418424L185.927040 54.377106L188.429760 50.758762
L190.932480 47.529208L193.435200 44.652149L196.051680 41.981966
L198.781920 39.521681L201.625920 37.268995L204.583680 35.217397
L207.655200 33.357260L210.954240 31.621032L214.480800 30.018333
L218.348640 28.511839L222.557760 27.118892L227.108160 25.848521
L232.227360 24.654499L237.915360 23.559140L244.399680 22.541420
L251.794080 21.609924L260.439840 20.751312L270.564480 19.974994
L276.366240 19.613669L276.366240 19.613669"/>
</g>
<g id="line2d4">
<path style="fill: none; stroke: #800080; stroke-width: 1.500000; stroke-linejoin: round; stroke-linecap: square;  opacity: 1.000000" clip-path="url(#p7d45bcb963c11562de4cbcc4e1a60e5c)" d="M48.960000 200.448000L276.366240 200.447999L276.366240 200.447999"/>
</g>
<g id="line2d5">
<path style="fill: none; stroke: #00bfff; stroke-width: 1.500000; stroke-linejoin: round; stroke-linecap: square;  opacity: 1.000000" clip-path="url(#p7d45bcb963c11562de4cbcc4e1a60e5c)" d="M48.960000 200.069709L65.227680 199.726738L76.262400 199.284159
L84.566880 198.739800L91.278720 198.082588L96.852960 197.315655
L101.517120 196.457594L105.612480 195.487212L109.252800 194.405977
L112.551840 193.204452L115.623360 191.855035L118.467360 190.368629
L121.197600 188.689700L123.814080 186.812276L126.316800 184.735159
L128.705760 182.462725L131.094720 179.874597L133.369920 177.086482
L135.645120 173.955305L137.920320 170.455939L140.309280 166.361945
L142.698240 161.820150L145.200960 156.571944L147.817440 150.552656
L150.661440 143.419904L153.732960 135.094496L157.373280 124.551505
L162.720000 108.288000L169.431840 87.999018L173.072160 77.707809
L176.143680 69.658560L178.987680 62.815836L181.604160 57.079070
L184.106880 52.104935L186.609600 47.627868L188.998560 43.802399
L191.387520 40.391652L193.776480 37.367737L196.165440 34.699642
L198.554400 32.354992L201.057120 30.210351L203.673600 28.270779
L206.403840 26.535506L209.247840 24.998747L212.205600 23.650679
L215.390880 22.439024L218.917440 21.337825L222.785280 20.365166
L227.108160 19.507943L232.113600 18.747585L237.915360 18.096316
L244.968480 17.538024L253.728000 17.079406L265.104000 16.717781
L276.366240 16.507914L276.366240 16.507914"/>
</g>
<g id="line2d6">
<path style="fill: none; stroke: #00bfff; stroke-width: 1.500000; stroke-linejoin: round; stroke-linecap: square;  opacity: 1.000000" clip-path="url(#p7d45bcb963c11562de4cbcc4e1a60e5c)" d="M48.960000 200.448000L276.366240 200.448000L276.366240 200.448000"/>
</g>
<g id="line2d7">
<path style="fill: none; stroke: #000000; stroke-width: 1.500000; stroke-linejoin: round; stroke-linecap: square;  opacity: 1.000000" clip-path="url(#p7d45bcb963c11562de4cbcc4e1a60e5c)" d="M48.960000 200.447947L89.003520 200.337841L96.966720 200.092961
L102.313440 199.717094L106.522560 199.202798L110.049120 198.548312
L113.120640 197.751632L115.850880 196.817030L118.353600 195.731609
L120.742560 194.454140L123.017760 192.984434L125.179200 191.329419
L127.340640 189.393770L129.502080 187.150227L131.663520 184.573159
L133.824960 181.639560L135.986400 178.330087L138.261600 174.424345
L140.536800 170.075726L142.925760 165.030875L145.428480 159.229017
L148.158720 152.324573L151.116480 144.225657L154.529280 134.199048
L158.738400 121.090901L172.503360 77.616750L175.916160 67.914051
L178.873920 60.153213L181.604160 53.594614L184.220640 47.891762
L186.609600 43.197061L188.998560 38.992014L191.273760 35.433563
L193.548960 32.294482L195.710400 29.680913L197.871840 27.403432
L200.033280 25.436636L202.308480 23.672127L204.583680 22.189201
L206.972640 20.899582L209.475360 19.803249L212.205600 18.858712
L215.163360 18.078711L218.462400 17.444563L222.330240 16.938361
L226.994400 16.563738L233.137440 16.309383L242.465760 16.170081
L264.535200 16.128704L276.366240 16.128054L276.366240 16.128054"/>
</g>
<g id="matplotlib.axis1">
<g id="xtick1">
<g id="line2d8">
<defs><path id="m30e32995789d870ad79a2e54c91cf9c6" d="M0.000000 0.000000L0.000000 -4.000000"/></defs>
<g ><use style="fill: none; stroke: #000000; stroke-width: 0.500000; stroke-linejoin: round; stroke-linecap: butt;  opacity: 1.000000" xlink:href="#m30e32995789d870ad79a2e54c91cf9c6" x="71.712000" y="200.448000"/>
</g></g>
<g id="line2d9">
<defs><path id="m9281cae24120827b11d5ea8a7ad3e96b" d="M0.000000 0.000000L0.000000 4.000000"/></defs>
<g ><use style="fill: none; stroke: #000000; stroke-width: 0.500000; stroke-linejoin: round; stroke-linecap: butt;  opacity: 1.000000" xlink:href="#m9281cae24120827b11d5ea8a7ad3e96b" x="71.712000" y="16.128000"/>
</g></g>
<g id="text1">
<defs>
<path id="c_6a8d56c819c37117ab4cf023bec22a5a" d="M10.593750 -35.500000l62.593750 0.000000l0.000000 8.296875l-62.593750 0.000000z"/>
<path id="c_a0416418d96557a09b8c1332d34883ba" d="M37.796875 -64.312500l-24.906250 38.921875l24.906250 0.000000zM35.203125 -72.906250l12.406250 0.000000l0.000000 47.515625l10.406250 0.000000l0.000000 8.203125l-10.406250 0.000000l0.000000 17.187500l-9.812500 0.000000l0.000000 -17.187500l-32.906250 0.000000l0.000000 -9.515625z"/>
</defs>
<g style="fill: #000000; opacity: 1.000000" transform="translate(63.829187,213.198000)scale(0.120000)">
<use xlink:href="#c_6a8d56c819c37117ab4cf023bec22a5a"/>
<use xlink:href="#c_a0416418d96557a09b8c1332d34883ba" x="83.789062"/>
</g>
</g>
</g>
<g id="xtick2">
<g id="line2d10">
<g ><use style="fill: none; stroke: #000000; stroke-width: 0.500000; stroke-linejoin: round; stroke-linecap: butt;  opacity: 1.000000" xlink:href="#m30e32995789d870ad79a2e54c91cf9c6" x="117.216000" y="200.448000"/>
</g></g>
<g id="line2d11">
<g ><use style="fill: none; stroke: #000000; stroke-width: 0.500000; stroke-linejoin: round; stroke-linecap: butt;  opacity: 1.000000" xlink:href="#m9281cae24120827b11d5ea8a7ad3e96b" x="117.216000" y="16.128000"/>
</g></g>
<g id="text2">
<defs>
<path id="c_ed3f3ed3ebfbd18bcb9c012009a68ad1" d="M19.187500 -8.296875l34.421875 0.000000l0.000000 8.296875l-46.281250 0.000000l0.000000 -8.296875q5.609375 -5.812500 15.296875 -15.593750q9.703125 -9.796875 12.187500 -12.640625q4.734375 -5.312500 6.609375 -9.000000q1.890625 -3.687500 1.890625 -7.250000q0.000000 -5.812500 -4.078125 -9.468750q-4.078125 -3.671875 -10.625000 -3.671875q-4.640625 0.000000 -9.796875 1.609375q-5.140625 1.609375 -11.000000 4.890625l0.000000 -9.968750q5.953125 -2.390625 11.125000 -3.609375q5.187500 -1.218750 9.484375 -1.218750q11.328125 0.000000 18.062500 5.671875q6.734375 5.656250 6.734375 15.125000q0.000000 4.500000 -1.687500 8.531250q-1.671875 4.015625 -6.125000 9.484375q-1.218750 1.421875 -7.765625 8.187500q-6.531250 6.765625 -18.453125 18.921875"/>
</defs>
<g style="fill: #000000; opacity: 1.000000" transform="translate(109.598812,213.354250)scale(0.120000)">
<use xlink:href="#c_6a8d56c819c37117ab4cf023bec22a5a"/>
<use xlink:href="#c_ed3f3ed3ebfbd18bcb9c012009a68ad1" x="83.789062"/>
</g>
</g>
</g>
<g id="xtick3">
<g id="line2d12">
<g ><use style="fill: none; stroke: #000000; stroke-width: 0.500000; stroke-linejoin: round; stroke-linecap: butt;  opacity: 1.000000" xlink:href="#m30e32995789d870ad79a2e54c91cf9c6" x="162.720000" y="200.448000"/>
</g></g>
<g id="line2d13">
<g ><use style="fill: none; stroke: #000000; stroke-width: 0.500000; stroke-linejoin: round; stroke-linecap: butt;  opacity: 1.000000" xlink:href="#m9281cae24120827b11d5ea8a7ad3e96b" x="162.720000" y="16.128000"/>
</g></g>
<g id="text3">
<defs>
<path id="c_7a2040fe3b94fcd41d0a72c84e93b115" d="M31.781250 -66.406250q-7.609375 0.000000 -11.453125 7.500000q-3.828125 7.484375 -3.828125 22.531250q0.000000 14.984375 3.828125 22.484375q3.843750 7.500000 11.453125 7.500000q7.671875 0.000000 11.500000 -7.500000q3.843750 -7.500000 3.843750 -22.484375q0.000000 -15.046875 -3.843750 -22.531250q-3.828125 -7.500000 -11.500000 -7.500000M31.781250 -74.218750q12.265625 0.000000 18.734375 9.703125q6.468750 9.687500 6.468750 28.140625q0.000000 18.406250 -6.468750 28.109375q-6.468750 9.687500 -18.734375 9.687500q-12.250000 0.000000 -18.718750 -9.687500q-6.468750 -9.703125 -6.468750 -28.109375q0.000000 -18.453125 6.468750 -28.140625q6.468750 -9.703125 18.718750 -9.703125"/>
</defs>
<g style="fill: #000000; opacity: 1.000000" transform="translate(159.696562,213.354250)scale(0.120000)">
<use xlink:href="#c_7a2040fe3b94fcd41d0a72c84e93b115"/>
</g>
</g>
</g>
<g id="xtick4">
<g id="line2d14">
<g ><use style="fill: none; stroke: #000000; stroke-width: 0.500000; stroke-linejoin: round; stroke-linecap: butt;  opacity: 1.000000" xlink:href="#m30e32995789d870ad79a2e54c91cf9c6" x="208.224000" y="200.448000"/>
</g></g>
<g id="line2d15">
<g ><use style="fill: none; stroke: #000000; stroke-width: 0.500000; stroke-linejoin: round; stroke-linecap: butt;  opacity: 1.000000" xlink:href="#m9281cae24120827b11d5ea8a7ad3e96b" x="208.224000" y="16.128000"/>
</g></g>
<g id="text4">
<g style="fill: #000000; opacity: 1.000000" transform="translate(205.442750,213.354250)scale(0.120000)">
<use xlink:href="#c_ed3f3ed3ebfbd18bcb9c012009a68ad1"/>
</g>
</g>
</g>
<g id="xtick5">
<g id="line2d16">
<g ><use style="fill: none; stroke: #000000; stroke-width: 0.500000; stroke-linejoin: round; stroke-linecap: butt;  opacity: 1.000000" xlink:href="#m30e32995789d870ad79a2e54c91cf9c6" x="253.728000" y="200.448000"/>
</g></g>
<g id="line2d17">
<g ><use style="fill: none; stroke: #000000; stroke-width: 0.500000; stroke-linejoin: round; stroke-linecap: butt;  opacity: 1.000000" xlink:href="#m9281cae24120827b11d5ea8a7ad3e96b" x="253.728000" y="16.128000"/>
</g></g>
<g id="text5">
<g style="fill: #000000; opacity: 1.000000" transform="translate(250.540500,213.198000)scale(0.120000)">
<use xlink:href="#c_a0416418d96557a09b8c1332d34883ba"/>
</g>
</g>
</g>
<g id="text6">
<defs>
<path id="c_801fe2e877fad46da27c898b407b3b54" d="M54.890625 -54.687500l-19.781250 26.609375l20.796875 28.078125l-10.593750 0.000000l-15.921875 -21.484375l-15.906250 21.484375l-10.609375 0.000000l21.250000 -28.609375l-19.437500 -26.078125l10.593750 0.000000l14.500000 19.484375l14.500000 -19.484375z"/>
</defs>
<g style="fill: #000000; opacity: 1.000000" transform="translate(159.540312,225.088625)scale(0.120000)">
<use xlink:href="#c_801fe2e877fad46da27c898b407b3b54"/>
</g>
</g>
</g>
<g id="matplotlib.axis2">
<g id="ytick1">
<g id="line2d18">
<defs><path id="m3400efa6b1638b3fea9e19e898273957" d="M0.000000 0.000000L4.000000 0.000000"/></defs>
<g ><use style="fill: none; stroke: #000000; stroke-width: 0.500000; stroke-linejoin: round; stroke-linecap: butt;  opacity: 1.000000" xlink:href="#m3400efa6b1638b3fea9e19e898273957" x="48.960000" y="200.448000"/>
</g></g>
<g id="line2d19">
<defs><path id="m20b58b2501143cb5e0a5e8f1ef6f1643" d="M0.000000 0.000000L-4.000000 0.000000"/></defs>
<g ><use style="fill: none; stroke: #000000; stroke-width: 0.500000; stroke-linejoin: round; stroke-linecap: butt;  opacity: 1.000000" xlink:href="#m20b58b2501143cb5e0a5e8f1ef6f1643" x="276.480000" y="200.448000"/>
</g></g>
<g id="text7">
<defs>
<path id="c_ed3e21196fb739f392806f09ca0594ef" d="M10.687500 -12.406250l10.312500 0.000000l0.000000 12.406250l-10.312500 0.000000z"/>
</defs>
<g style="fill: #000000; opacity: 1.000000" transform="translate(27.460000,204.815188)scale(0.120000)">
<use xlink:href="#c_7a2040fe3b94fcd41d0a72c84e93b115"/>
<use xlink:href="#c_ed3e21196fb739f392806f09ca0594ef" x="63.623047"/>
<use xlink:href="#c_7a2040fe3b94fcd41d0a72c84e93b115" x="95.410156"/>
</g>
</g>
</g>
<g id="ytick2">
<g id="line2d20">
<g ><use style="fill: none; stroke: #000000; stroke-width: 0.500000; stroke-linejoin: round; stroke-linecap: butt;  opacity: 1.000000" xlink:href="#m3400efa6b1638b3fea9e19e898273957" x="48.960000" y="163.584000"/>
</g></g>
<g id="line2d21">
<g ><use style="fill: none; stroke: #000000; stroke-width: 0.500000; stroke-linejoin: round; stroke-linecap: butt;  opacity: 1.000000" xlink:href="#m20b58b2501143cb5e0a5e8f1ef6f1643" x="276.480000" y="163.584000"/>
</g></g>
<g id="text8">
<g style="fill: #000000; opacity: 1.000000" transform="translate(27.866250,167.951188)scale(0.120000)">
<use xlink:href="#c_7a2040fe3b94fcd41d0a72c84e93b115"/>
<use xlink:href="#c_ed3e21196fb739f392806f09ca0594ef" x="63.623047"/>
<use xlink:href="#c_ed3f3ed3ebfbd18bcb9c012009a68ad1" x="95.410156"/>
</g>
</g>
</g>
<g id="ytick3">
<g id="line2d22">
<g ><use style="fill: none; stroke: #000000; stroke-width: 0.500000; stroke-linejoin: round; stroke-linecap: butt;  opacity: 1.000000" xlink:href="#m3400efa6b1638b3fea9e19e898273957" x="48.960000" y="126.720000"/>
</g></g>
<g id="line2d23">
<g ><use style="fill: none; stroke: #000000; stroke-width: 0.500000; stroke-linejoin: round; stroke-linecap: butt;  opacity: 1.000000" xlink:href="#m20b58b2501143cb5e0a5e8f1ef6f1643" x="276.480000" y="126.720000"/>
</g></g>
<g id="text9">
<g style="fill: #000000; opacity: 1.000000" transform="translate(27.335000,131.087187)scale(0.120000)">
<use xlink:href="#c_7a2040fe3b94fcd41d0a72c84e93b115"/>
<use xlink:href="#c_ed3e21196fb739f392806f09ca0594ef" x="63.623047"/>
<use xlink:href="#c_a0416418d96557a09b8c1332d34883ba" x="95.410156"/>
</g>
</g>
</g>
<g id="ytick4">
<g id="line2d24">
<g ><use style="fill: none; stroke: #000000; stroke-width: 0.500000; stroke-linejoin: round; stroke-linecap: butt;  opacity: 1.000000" xlink:href="#m3400efa6b1638b3fea9e19e898273957" x="48.960000" y="89.856000"/>
</g></g>
<g id="line2d25">
<g ><use style="fill: none; stroke: #000000; stroke-width: 0.500000; stroke-linejoin: round; stroke-linecap: butt;  opacity: 1.000000" xlink:href="#m20b58b2501143cb5e0a5e8f1ef6f1643" x="276.480000" y="89.856000"/>
</g></g>
<g id="text10">
<defs>
<path id="c_cc8d6d580d1b10c8632f7a42cd53db8a" d="M33.015625 -40.375000q-6.640625 0.000000 -10.531250 4.546875q-3.875000 4.531250 -3.875000 12.437500q0.000000 7.859375 3.875000 12.437500q3.890625 4.562500 10.531250 4.562500q6.640625 0.000000 10.515625 -4.562500q3.875000 -4.578125 3.875000 -12.437500q0.000000 -7.906250 -3.875000 -12.437500q-3.875000 -4.546875 -10.515625 -4.546875M52.593750 -71.296875l0.000000 8.984375q-3.718750 -1.750000 -7.500000 -2.671875q-3.781250 -0.937500 -7.500000 -0.937500q-9.765625 0.000000 -14.921875 6.593750q-5.140625 6.593750 -5.875000 19.921875q2.875000 -4.250000 7.218750 -6.515625q4.359375 -2.265625 9.578125 -2.265625q10.984375 0.000000 17.359375 6.671875q6.375000 6.656250 6.375000 18.125000q0.000000 11.234375 -6.640625 18.031250q-6.640625 6.781250 -17.671875 6.781250q-12.656250 0.000000 -19.343750 -9.687500q-6.687500 -9.703125 -6.687500 -28.109375q0.000000 -17.281250 8.203125 -27.562500q8.203125 -10.281250 22.015625 -10.281250q3.718750 0.000000 7.500000 0.734375q3.781250 0.734375 7.890625 2.187500"/>
</defs>
<g style="fill: #000000; opacity: 1.000000" transform="translate(27.428750,94.223187)scale(0.120000)">
<use xlink:href="#c_7a2040fe3b94fcd41d0a72c84e93b115"/>
<use xlink:href="#c_ed3e21196fb739f392806f09ca0594ef" x="63.623047"/>
<use xlink:href="#c_cc8d6d580d1b10c8632f7a42cd53db8a" x="95.410156"/>
</g>
</g>
</g>
<g id="ytick5">
<g id="line2d26">
<g ><use style="fill: none; stroke: #000000; stroke-width: 0.500000; stroke-linejoin: round; stroke-linecap: butt;  opacity: 1.000000" xlink:href="#m3400efa6b1638b3fea9e19e898273957" x="48.960000" y="52.992000"/>
</g></g>
<g id="line2d27">
<g ><use style="fill: none; stroke: #000000; stroke-width: 0.500000; stroke-linejoin: round; stroke-linecap: butt;  opacity: 1.000000" xlink:href="#m20b58b2501143cb5e0a5e8f1ef6f1643" x="276.480000" y="52.992000"/>
</g></g>
<g id="text11">
<defs>
<path id="c_bef35738d52871942e50b9de9b122bab" d="M31.781250 -34.625000q-7.031250 0.000000 -11.062500 3.765625q-4.015625 3.765625 -4.015625 10.343750q0.000000 6.593750 4.015625 10.359375q4.031250 3.765625 11.062500 3.765625q7.031250 0.000000 11.078125 -3.781250q4.062500 -3.796875 4.062500 -10.343750q0.000000 -6.578125 -4.031250 -10.343750q-4.015625 -3.765625 -11.109375 -3.765625M21.921875 -38.812500q-6.343750 -1.562500 -9.890625 -5.906250q-3.531250 -4.359375 -3.531250 -10.609375q0.000000 -8.734375 6.218750 -13.812500q6.234375 -5.078125 17.062500 -5.078125q10.890625 0.000000 17.093750 5.078125q6.203125 5.078125 6.203125 13.812500q0.000000 6.250000 -3.546875 10.609375q-3.531250 4.343750 -9.828125 5.906250q7.125000 1.656250 11.093750 6.500000q3.984375 4.828125 3.984375 11.796875q0.000000 10.609375 -6.468750 16.281250q-6.468750 5.656250 -18.531250 5.656250q-12.046875 0.000000 -18.531250 -5.656250q-6.468750 -5.671875 -6.468750 -16.281250q0.000000 -6.968750 4.000000 -11.796875q4.015625 -4.843750 11.140625 -6.500000M18.312500 -54.390625q0.000000 5.656250 3.531250 8.828125q3.546875 3.171875 9.937500 3.171875q6.359375 0.000000 9.937500 -3.171875q3.593750 -3.171875 3.593750 -8.828125q0.000000 -5.671875 -3.593750 -8.843750q-3.578125 -3.171875 -9.937500 -3.171875q-6.390625 0.000000 -9.937500 3.171875q-3.531250 3.171875 -3.531250 8.843750"/>
</defs>
<g style="fill: #000000; opacity: 1.000000" transform="translate(27.491250,57.359187)scale(0.120000)">
<use xlink:href="#c_7a2040fe3b94fcd41d0a72c84e93b115"/>
<use xlink:href="#c_ed3e21196fb739f392806f09ca0594ef" x="63.623047"/>
<use xlink:href="#c_bef35738d52871942e50b9de9b122bab" x="95.410156"/>
</g>
</g>
</g>
<g id="ytick6">
<g id="line2d28">
<g ><use style="fill: none; stroke: #000000; stroke-width: 0.500000; stroke-linejoin: round; stroke-linecap: butt;  opacity: 1.000000" xlink:href="#m3400efa6b1638b3fea9e19e898273957" x="48.960000" y="16.128000"/>
</g></g>
<g id="line2d29">
<g ><use style="fill: none; stroke: #000000; stroke-width: 0.500000; stroke-linejoin: round; stroke-linecap: butt;  opacity: 1.000000" xlink:href="#m20b58b2501143cb5e0a5e8f1ef6f1643" x="276.480000" y="16.128000"/>
</g></g>
<g id="text12">
<defs>
<path id="c_42baa63129a918535c52adb20d687ea7" d="M12.406250 -8.296875l16.109375 0.000000l0.000000 -55.625000l-17.531250 3.515625l0.000000 -8.984375l17.437500 -3.515625l9.859375 0.000000l0.000000 64.609375l16.109375 0.000000l0.000000 8.296875l-41.984375 0.000000z"/>
</defs>
<g style="fill: #000000; opacity: 1.000000" transform="translate(27.975625,20.495187)scale(0.120000)">
<use xlink:href="#c_42baa63129a918535c52adb20d687ea7"/>
<use xlink:href="#c_ed3e21196fb739f392806f09ca0594ef" x="63.623047"/>
<use xlink:href="#c_7a2040fe3b94fcd41d0a72c84e93b115" x="95.410156"/>
</g>
</g>
</g>
<g id="text13">
<defs>
<path id="c_518d586bee075aa0153eaebfcb5ab11f" d="M19.671875 -64.796875l0.000000 27.390625l12.406250 0.000000q6.890625 0.000000 10.640625 -3.562500q3.765625 -3.562500 3.765625 -10.156250q0.000000 -6.546875 -3.765625 -10.109375q-3.750000 -3.562500 -10.640625 -3.562500zM9.812500 -72.906250l22.265625 0.000000q12.265625 0.000000 18.531250 5.546875q6.281250 5.546875 6.281250 16.234375q0.000000 10.796875 -6.281250 16.312500q-6.265625 5.515625 -18.531250 5.515625l-12.406250 0.000000l0.000000 29.296875l-9.859375 0.000000z"/>
<path id="c_7efa9804c2b4c09a4b614b91fdebee3d" d="M31.000000 -75.875000q-6.531250 11.218750 -9.718750 22.218750q-3.171875 10.984375 -3.171875 22.265625q0.000000 11.265625 3.203125 22.328125q3.203125 11.062500 9.687500 22.250000l-7.812500 0.000000q-7.312500 -11.484375 -10.953125 -22.562500q-3.640625 -11.078125 -3.640625 -22.015625q0.000000 -10.890625 3.609375 -21.921875q3.625000 -11.046875 10.984375 -22.562500z"/>
<path id="c_1f359503f1521dfa90158578bb4360b9" d="M6.296875 -72.906250l10.593750 0.000000l18.125000 27.109375l18.203125 -27.109375l10.593750 0.000000l-23.437500 35.015625l25.000000 37.890625l-10.593750 0.000000l-20.500000 -31.000000l-20.656250 31.000000l-10.640625 0.000000l26.015625 -38.921875z"/>
<path id="c_0ee32cf4974d54fdf3bddbeefffe518d" d="M73.187500 -49.609375l-46.875000 13.531250l46.875000 13.375000l0.000000 8.687500l-62.593750 -17.968750l0.000000 -8.296875l62.593750 -17.921875zM10.593750 -8.296875l62.593750 0.000000l0.000000 8.296875l-62.593750 0.000000z"/>
<path id="c_e96974be642f6eac0427d72f9cec6c19" d="M8.015625 -75.875000l7.812500 0.000000q7.312500 11.515625 10.953125 22.562500q3.640625 11.031250 3.640625 21.921875q0.000000 10.937500 -3.640625 22.015625q-3.640625 11.078125 -10.953125 22.562500l-7.812500 0.000000q6.484375 -11.187500 9.687500 -22.250000q3.203125 -11.062500 3.203125 -22.328125q0.000000 -11.281250 -3.203125 -22.265625q-3.203125 -11.000000 -9.687500 -22.218750"/>
</defs>
<g style="fill: #000000; opacity: 1.000000" transform="translate(22.335000,126.608313)rotate(-90.0)scale(0.120000)">
<use xlink:href="#c_518d586bee075aa0153eaebfcb5ab11f"/>
<use xlink:href="#c_7efa9804c2b4c09a4b614b91fdebee3d" x="60.302734"/>
<use xlink:href="#c_1f359503f1521dfa90158578bb4360b9" x="99.316406"/>
<use xlink:href="#c_0ee32cf4974d54fdf3bddbeefffe518d" x="167.822266"/>
<use xlink:href="#c_801fe2e877fad46da27c898b407b3b54" x="251.611328"/>
<use xlink:href="#c_e96974be642f6eac0427d72f9cec6c19" x="310.791016"/>
</g>
</g>
</g>
<g id="patch3">
<path style="fill: none; stroke: #000000; stroke-width: 1.000000; stroke-linejoin: round; stroke-linecap: square;  opacity: 1.000000"  d="M48.960000 16.128000L276.480000 16.128000"/>
</g>
<g id="patch4">
<path style="fill: none; stroke: #000000; stroke-width: 1.000000; stroke-linejoin: round; stroke-linecap: square;  opacity: 1.000000"  d="M276.480000 200.448000L276.480000 16.128000"/>
</g>
<g id="patch5">
<path style="fill: none; stroke: #000000; stroke-width: 1.000000; stroke-linejoin: round; stroke-linecap: square;  opacity: 1.000000"  d="M48.960000 200.448000L276.480000 200.448000"/>
</g>
<g id="patch6">
<path style="fill: none; stroke: #000000; stroke-width: 1.000000; stroke-linejoin: round; stroke-linecap: square;  opacity: 1.000000"  d="M48.960000 200.448000L48.960000 16.128000"/>
</g>
<g id="legend1">
<g id="line2d30">
<path style="fill: none; stroke: #ffa500; stroke-width: 1.500000; stroke-linejoin: round; stroke-linecap: square;  opacity: 1.000000"  d="M196.520000 118.207375L206.760000 118.207375"/>
</g>
<g id="line2d31">
</g>
<g id="text14">
<defs>
<path id="c_32edf484d6455aaf5dbeeedbc2acd75b" d="M6.296875 -0.000000q-1.218750 0.000000 -1.218750 -1.312500l8.546875 -33.984375q0.390625 -1.718750 0.484375 -2.687500q0.000000 -1.609375 -6.484375 -1.609375q-1.031250 0.000000 -1.031250 -1.328125q0.046875 -0.234375 0.218750 -0.875000q0.171875 -0.640625 0.437500 -0.968750q0.265625 -0.343750 0.765625 -0.343750l13.468750 -1.078125q1.218750 0.000000 1.218750 1.265625l-9.812500 39.203125q7.906250 -2.625000 14.562500 -8.234375q6.671875 -5.625000 11.281250 -13.234375q4.625000 -7.625000 6.671875 -15.828125q0.390625 -1.421875 1.562500 -2.296875q1.171875 -0.875000 2.640625 -0.875000q1.312500 0.000000 2.140625 0.781250q0.843750 0.781250 0.843750 2.093750q0.000000 1.609375 -1.328125 4.906250q-1.312500 3.296875 -2.578125 5.890625q-3.953125 7.859375 -10.500000 14.406250q-4.109375 4.093750 -8.828125 7.265625q-4.703125 3.171875 -9.828125 5.406250q-5.125000 2.218750 -10.843750 3.437500z"/>
<path id="c_7bbc93c01755cdeb977d08bdfb9ce616" d="M7.515625 -13.281250q-0.828125 0.000000 -1.375000 -0.625000q-0.531250 -0.640625 -0.531250 -1.375000q0.000000 -0.828125 0.531250 -1.406250q0.546875 -0.593750 1.375000 -0.593750l62.796875 0.000000q0.734375 0.000000 1.265625 0.593750q0.546875 0.578125 0.546875 1.406250q0.000000 0.734375 -0.546875 1.375000q-0.531250 0.625000 -1.265625 0.625000zM7.515625 -32.718750q-0.828125 0.000000 -1.375000 -0.578125q-0.531250 -0.593750 -0.531250 -1.421875q0.000000 -0.734375 0.531250 -1.359375q0.546875 -0.640625 1.375000 -0.640625l62.796875 0.000000q0.734375 0.000000 1.265625 0.640625q0.546875 0.625000 0.546875 1.359375q0.000000 0.828125 -0.546875 1.421875q-0.531250 0.578125 -1.265625 0.578125z"/>
<path id="c_1a459ac34855d27ec37ccb0e66298d36" d="M9.281250 -0.000000l0.000000 -3.515625q12.500000 0.000000 12.500000 -3.171875l0.000000 -52.500000q-5.171875 2.500000 -13.093750 2.500000l0.000000 -3.515625q12.265625 0.000000 18.515625 -6.406250l1.406250 0.000000q0.343750 0.000000 0.656250 0.281250q0.328125 0.265625 0.328125 0.609375l0.000000 59.031250q0.000000 3.171875 12.500000 3.171875l0.000000 3.515625z"/>
</defs>
<g id="mathtext1">
<g style="fill: #000000" transform="translate(212.520000,123.247375)">
<use xlink:href="#c_32edf484d6455aaf5dbeeedbc2acd75b" transform="translate(0.000000,-0.421875)scale(0.144000)"/>
<use xlink:href="#c_7bbc93c01755cdeb977d08bdfb9ce616" transform="translate(9.637784,-0.421875)scale(0.144000)"/>
<use xlink:href="#c_1a459ac34855d27ec37ccb0e66298d36" transform="translate(21.727075,-0.421875)scale(0.144000)"/>
</g>
</g>
</g>
<g id="line2d32">
<path style="fill: none; stroke: #800080; stroke-width: 1.500000; stroke-linejoin: round; stroke-linecap: square;  opacity: 1.000000"  d="M196.520000 138.954250L206.760000 138.954250"/>
</g>
<g id="line2d33">
</g>
<g id="text15">
<defs>
<path id="c_1210e7f4d85518601ea3049211d562d0" d="M4.984375 -0.000000l0.000000 -2.687500q0.000000 -0.250000 0.187500 -0.531250l15.531250 -17.187500q3.515625 -3.812500 5.703125 -6.390625q2.203125 -2.593750 4.343750 -5.968750q2.156250 -3.375000 3.406250 -6.859375q1.250000 -3.484375 1.250000 -7.390625q0.000000 -4.109375 -1.515625 -7.843750q-1.515625 -3.734375 -4.515625 -5.984375q-3.000000 -2.250000 -7.250000 -2.250000q-4.343750 0.000000 -7.812500 2.625000q-3.468750 2.609375 -4.890625 6.750000q0.390625 -0.093750 1.078125 -0.093750q2.250000 0.000000 3.828125 1.515625q1.593750 1.515625 1.593750 3.906250q0.000000 2.296875 -1.593750 3.890625q-1.578125 1.578125 -3.828125 1.578125q-2.343750 0.000000 -3.937500 -1.625000q-1.578125 -1.640625 -1.578125 -3.843750q0.000000 -3.765625 1.406250 -7.046875q1.421875 -3.296875 4.078125 -5.859375q2.671875 -2.578125 6.015625 -3.937500q3.343750 -1.375000 7.093750 -1.375000q5.718750 0.000000 10.640625 2.421875q4.937500 2.421875 7.812500 6.843750q2.890625 4.406250 2.890625 10.328125q0.000000 4.343750 -1.906250 8.250000q-1.906250 3.906250 -4.890625 7.109375q-2.968750 3.187500 -7.609375 7.250000q-4.640625 4.046875 -6.093750 5.406250l-11.328125 10.890625l9.609375 0.000000q7.078125 0.000000 11.843750 -0.109375q4.765625 -0.125000 5.046875 -0.375000q1.171875 -1.265625 2.406250 -9.234375l2.921875 0.000000l-2.828125 17.828125z"/>
</defs>
<g id="mathtext2">
<g style="fill: #000000" transform="translate(212.520000,143.994250)">
<use xlink:href="#c_32edf484d6455aaf5dbeeedbc2acd75b" transform="translate(0.000000,-0.421875)scale(0.144000)"/>
<use xlink:href="#c_7bbc93c01755cdeb977d08bdfb9ce616" transform="translate(9.637784,-0.421875)scale(0.144000)"/>
<use xlink:href="#c_1210e7f4d85518601ea3049211d562d0" transform="translate(21.727075,-0.421875)scale(0.144000)"/>
</g>
</g>
</g>
<g id="line2d34">
<path style="fill: none; stroke: #00bfff; stroke-width: 1.500000; stroke-linejoin: round; stroke-linecap: square;  opacity: 1.000000"  d="M196.520000 159.701125L206.760000 159.701125"/>
</g>
<g id="line2d35">
</g>
<g id="text16">
<defs>
<path id="c_7d09e94cce4bdf71f2297f5bbc354b76" d="M8.687500 -11.375000q1.031250 2.921875 3.156250 5.328125q2.125000 2.390625 5.031250 3.734375q2.906250 1.328125 6.031250 1.328125q7.218750 0.000000 9.953125 -5.609375q2.734375 -5.609375 2.734375 -13.625000q0.000000 -3.468750 -0.125000 -5.828125q-0.109375 -2.375000 -0.656250 -4.562500q-0.921875 -3.515625 -3.250000 -6.156250q-2.312500 -2.640625 -5.687500 -2.640625q-3.359375 0.000000 -5.781250 1.031250q-2.421875 1.015625 -3.937500 2.390625q-1.500000 1.359375 -2.671875 2.875000q-1.171875 1.515625 -1.468750 1.609375l-1.125000 0.000000q-0.250000 0.000000 -0.625000 -0.312500q-0.359375 -0.312500 -0.359375 -0.609375l0.000000 -33.406250q0.000000 -0.234375 0.312500 -0.500000q0.328125 -0.281250 0.671875 -0.281250l0.296875 0.000000q6.734375 3.234375 14.296875 3.234375q7.421875 0.000000 14.312500 -3.234375l0.296875 0.000000q0.343750 0.000000 0.625000 0.250000q0.296875 0.250000 0.296875 0.531250l0.000000 0.937500q0.000000 0.484375 -0.187500 0.484375q-3.421875 4.546875 -8.578125 7.093750q-5.156250 2.531250 -10.671875 2.531250q-4.000000 0.000000 -8.203125 -1.125000l0.000000 18.890625q3.328125 -2.687500 5.937500 -3.828125q2.609375 -1.156250 6.671875 -1.156250q5.515625 0.000000 9.875000 3.187500q4.375000 3.171875 6.718750 8.281250q2.343750 5.093750 2.343750 10.406250q0.000000 6.015625 -2.953125 11.140625q-2.953125 5.125000 -8.031250 8.156250q-5.078125 3.031250 -11.031250 3.031250q-4.937500 0.000000 -9.062500 -2.531250q-4.125000 -2.546875 -6.500000 -6.843750q-2.359375 -4.296875 -2.359375 -9.140625q0.000000 -2.250000 1.453125 -3.656250q1.468750 -1.421875 3.671875 -1.421875q2.203125 0.000000 3.687500 1.453125q1.484375 1.437500 1.484375 3.625000q0.000000 2.156250 -1.484375 3.640625q-1.484375 1.484375 -3.687500 1.484375q-0.343750 0.000000 -0.781250 -0.062500q-0.437500 -0.078125 -0.640625 -0.125000"/>
</defs>
<g id="mathtext3">
<g style="fill: #000000" transform="translate(212.520000,165.741125)">
<use xlink:href="#c_32edf484d6455aaf5dbeeedbc2acd75b" transform="translate(0.000000,-1.421875)scale(0.144000)"/>
<use xlink:href="#c_7bbc93c01755cdeb977d08bdfb9ce616" transform="translate(9.637784,-1.421875)scale(0.144000)"/>
<use xlink:href="#c_7d09e94cce4bdf71f2297f5bbc354b76" transform="translate(21.727075,-1.421875)scale(0.144000)"/>
</g>
</g>
</g>
<g id="line2d36">
<path style="fill: none; stroke: #000000; stroke-width: 1.500000; stroke-linejoin: round; stroke-linecap: square;  opacity: 1.000000"  d="M196.520000 180.448000L206.760000 180.448000"/>
</g>
<g id="line2d37">
</g>
<g id="text17">
<defs>
<path id="c_6a3a612567bb59e037cbf13158797929" d="M7.515625 -23.000000q-0.828125 0.000000 -1.375000 -0.625000q-0.531250 -0.640625 -0.531250 -1.375000q0.000000 -0.734375 0.531250 -1.359375q0.546875 -0.640625 1.375000 -0.640625l29.406250 0.000000l0.000000 -29.500000q0.000000 -0.781250 0.578125 -1.281250q0.593750 -0.515625 1.421875 -0.515625q0.734375 0.000000 1.359375 0.515625q0.640625 0.500000 0.640625 1.281250l0.000000 29.500000l29.390625 0.000000q0.734375 0.000000 1.265625 0.640625q0.546875 0.625000 0.546875 1.359375q0.000000 0.734375 -0.546875 1.375000q-0.531250 0.625000 -1.265625 0.625000l-29.390625 0.000000l0.000000 29.500000q0.000000 0.781250 -0.640625 1.281250q-0.625000 0.515625 -1.359375 0.515625q-0.828125 0.000000 -1.421875 -0.515625q-0.578125 -0.500000 -0.578125 -1.281250l0.000000 -29.500000z"/>
<path id="c_04111b2b7db28f5ad55cf0eace59d749" d="M24.609375 1.125000q-5.656250 0.000000 -10.031250 -3.312500q-4.375000 -3.328125 -6.671875 -8.593750q-2.296875 -5.281250 -2.296875 -10.796875q0.000000 -4.250000 1.343750 -8.296875q1.343750 -4.062500 3.875000 -7.281250q2.546875 -3.218750 6.140625 -5.125000q3.593750 -1.906250 7.937500 -1.906250q4.484375 0.000000 8.687500 1.718750q4.203125 1.703125 7.687500 4.531250q3.500000 2.828125 6.515625 6.546875l2.984375 4.000000q2.984375 -4.734375 6.593750 -8.468750q3.609375 -3.734375 8.171875 -6.031250q4.578125 -2.296875 9.750000 -2.296875q4.343750 0.000000 7.906250 1.937500q3.562500 1.921875 6.046875 5.250000q2.500000 3.312500 3.765625 7.343750q1.265625 4.015625 1.265625 8.078125q0.000000 5.656250 -2.375000 10.906250q-2.359375 5.250000 -6.734375 8.531250q-4.359375 3.265625 -10.171875 3.265625q-6.546875 0.000000 -12.437500 -3.515625q-5.875000 -3.515625 -10.468750 -9.328125l-2.968750 -4.000000q-4.593750 7.468750 -10.828125 12.156250q-6.218750 4.687500 -13.687500 4.687500M23.578125 -2.390625q12.703125 0.000000 22.718750 -17.000000l-5.281250 -6.734375q-4.593750 -6.046875 -8.546875 -9.468750q-3.953125 -3.421875 -9.171875 -3.421875q-4.453125 0.000000 -7.890625 2.515625q-3.437500 2.515625 -5.328125 6.578125q-1.875000 4.046875 -1.875000 8.437500q0.000000 3.375000 1.046875 6.765625q1.046875 3.390625 3.046875 6.171875q2.015625 2.781250 4.859375 4.468750q2.859375 1.687500 6.421875 1.687500M58.890625 -17.000000q4.593750 6.062500 8.546875 9.484375q3.953125 3.406250 9.171875 3.406250q3.328125 0.000000 6.109375 -1.453125q2.781250 -1.468750 4.796875 -3.953125q2.031250 -2.500000 3.109375 -5.625000q1.078125 -3.125000 1.078125 -6.437500q0.000000 -4.640625 -1.859375 -9.062500q-1.859375 -4.421875 -5.359375 -7.250000q-3.484375 -2.828125 -8.171875 -2.828125q-12.687500 0.000000 -22.703125 17.031250z"/>
</defs>
<g id="mathtext4">
<g style="fill: #000000" transform="translate(212.520000,187.488000)">
<use xlink:href="#c_32edf484d6455aaf5dbeeedbc2acd75b" transform="translate(0.000000,-2.609375)scale(0.144000)"/>
<use xlink:href="#c_7bbc93c01755cdeb977d08bdfb9ce616" transform="translate(9.637784,-2.609375)scale(0.144000)"/>
<use xlink:href="#c_6a3a612567bb59e037cbf13158797929" transform="translate(24.253867,-2.609375)scale(0.144000)"/>
<use xlink:href="#c_04111b2b7db28f5ad55cf0eace59d749" transform="translate(36.343158,-2.609375)scale(0.144000)"/>
</g>
</g>
</g>
</g>
</g>
</g>
</svg>
